# xmcd
# 
# Track frame offsets:
#     150
#     19563
#     39346
#     56057
#     70601
#     90926
#     103268
#     118534
#     136282
# 
# Disc length: 2057
# 
# Revision: 1
# Processed by: cddbd v1.5.2PL0 Copyright (c) Steve Scherf et al.
# Submitted via: fre:ac v1.0.17
# 
DISCID=6b080709
DTITLE=Zumba Fitness - ZIN43
DYEAR=2013
DGENRE=Latin
TTITLE0=Tu Boca (Merengue)
TTITLE1=Salsa Choke (Salsa)
TTITLE2=Shant (Bhangra)
TTITLE3=Arremangala Arrempujala (Punta)
TTITLE4=Take on me (Batacuda - Samba)
TTITLE5=Quemando Bota (Bunda Tribal)
TTITLE6=Zumba Loco (Hip-Hop Dance)
TTITLE7=Mueve la Pampa (Electro Soca)
TTITLE8=Llamado de Emergencia)
EXTD=YEAR: 2013
EXTT0=
EXTT1=
EXTT2=
EXTT3=
EXTT4=
EXTT5=
EXTT6=
EXTT7=
EXTT8=
PLAYORDER=
